<svg width="125" height="50" viewBox="0 0 125 50" fill="none" xmlns="http://www.w3.org/2000/svg">
<path d="M12.0656 17.015V40.445C12.0656 42.1683 12.4323 43.3417 13.1656 43.965C13.8989 44.5517 15.1456 44.845 16.9056 44.845V46C16.1723 45.9633 15.0906 45.9267 13.6606 45.89C12.2673 45.8167 10.8189 45.78 9.31559 45.78C7.55559 45.78 5.86892 45.8167 4.25559 45.89C2.64225 45.9267 1.39559 45.9633 0.515586 46V44.845C2.27559 44.845 3.65059 44.5517 4.64059 43.965C5.63059 43.3417 6.12559 42.1317 6.12559 40.335V26.97C6.12559 25.21 5.94225 23.9083 5.57559 23.065C5.24559 22.2217 4.62225 21.6717 3.70559 21.415C2.82559 21.1583 1.61559 21.03 0.075586 21.03V19.82C2.86225 19.7467 5.19059 19.5083 7.06059 19.105C8.93059 18.7017 10.5989 18.005 12.0656 17.015ZM35.3869 16.85C38.1002 16.85 40.4835 17.455 42.5369 18.665C44.6269 19.8383 46.2585 21.525 47.4319 23.725C48.6419 25.8883 49.2469 28.4367 49.2469 31.37C49.2469 34.3033 48.6235 36.9433 47.3769 39.29C46.1669 41.6 44.4802 43.4333 42.3169 44.79C40.1902 46.11 37.6785 46.77 34.7819 46.77C32.1419 46.77 29.7585 46.1833 27.6319 45.01C25.5419 43.8 23.8919 42.1133 22.6819 39.95C21.5085 37.75 20.9219 35.1833 20.9219 32.25C20.9219 29.3533 21.5085 26.75 22.6819 24.44C23.8919 22.0933 25.5785 20.2417 27.7419 18.885C29.9419 17.5283 32.4902 16.85 35.3869 16.85ZM34.8919 17.84C32.6552 17.84 30.8219 19.105 29.3919 21.635C27.9619 24.1283 27.2469 27.6117 27.2469 32.085C27.2469 35.385 27.6135 38.0433 28.3469 40.06C29.0802 42.04 30.0519 43.4883 31.2619 44.405C32.5085 45.3217 33.8469 45.78 35.2769 45.78C37.5135 45.78 39.3469 44.5333 40.7769 42.04C42.2069 39.51 42.9219 36.0083 42.9219 31.535C42.9219 28.235 42.5552 25.5767 41.8219 23.56C41.0885 21.5433 40.0985 20.095 38.8519 19.215C37.6419 18.2983 36.3219 17.84 34.8919 17.84ZM69.2248 16.85C71.9381 16.85 74.3214 17.455 76.3748 18.665C78.4648 19.8383 80.0964 21.525 81.2698 23.725C82.4798 25.8883 83.0848 28.4367 83.0848 31.37C83.0848 34.3033 82.4614 36.9433 81.2148 39.29C80.0048 41.6 78.3181 43.4333 76.1548 44.79C74.0281 46.11 71.5164 46.77 68.6198 46.77C65.9798 46.77 63.5964 46.1833 61.4698 45.01C59.3798 43.8 57.7298 42.1133 56.5198 39.95C55.3464 37.75 54.7598 35.1833 54.7598 32.25C54.7598 29.3533 55.3464 26.75 56.5198 24.44C57.7298 22.0933 59.4164 20.2417 61.5798 18.885C63.7798 17.5283 66.3281 16.85 69.2248 16.85ZM68.7298 17.84C66.4931 17.84 64.6598 19.105 63.2298 21.635C61.7998 24.1283 61.0848 27.6117 61.0848 32.085C61.0848 35.385 61.4514 38.0433 62.1848 40.06C62.9181 42.04 63.8898 43.4883 65.0998 44.405C66.3464 45.3217 67.6848 45.78 69.1148 45.78C71.3514 45.78 73.1848 44.5333 74.6148 42.04C76.0448 39.51 76.7598 36.0083 76.7598 31.535C76.7598 28.235 76.3931 25.5767 75.6598 23.56C74.9264 21.5433 73.9364 20.095 72.6898 19.215C71.4798 18.2983 70.1598 17.84 68.7298 17.84ZM96.1877 4.145C98.7177 4.145 100.753 4.93333 102.293 6.51C103.833 8.08667 104.603 10.2867 104.603 13.11C104.603 14.9433 104.236 16.5567 103.503 17.95C102.769 19.3433 101.761 20.425 100.478 21.195C99.231 21.965 97.801 22.35 96.1877 22.35C93.6577 22.35 91.6043 21.5617 90.0277 19.985C88.4877 18.4083 87.7177 16.2083 87.7177 13.385C87.7177 11.5517 88.0843 9.93833 88.8177 8.545C89.5877 7.15166 90.596 6.07 91.8427 5.3C93.126 4.53 94.5743 4.145 96.1877 4.145ZM115.878 29.555C114.521 29.555 113.513 30.2517 112.853 31.645C112.193 33.0383 111.863 35.0733 111.863 37.75C111.863 40.4267 112.248 42.4433 113.018 43.8C113.788 45.12 114.814 45.78 116.098 45.78C117.454 45.78 118.444 45.0833 119.068 43.69C119.728 42.2967 120.058 40.28 120.058 37.64C120.058 34.9267 119.691 32.91 118.958 31.59C118.224 30.2333 117.198 29.555 115.878 29.555ZM115.988 28.565C118.518 28.565 120.553 29.3533 122.093 30.93C123.633 32.5067 124.403 34.7067 124.403 37.53C124.403 39.3633 124.036 40.9767 123.303 42.37C122.569 43.7633 121.561 44.845 120.278 45.615C119.031 46.385 117.601 46.77 115.988 46.77C113.458 46.77 111.404 45.9817 109.828 44.405C108.288 42.8283 107.518 40.6283 107.518 37.805C107.518 35.9717 107.884 34.3583 108.618 32.965C109.388 31.5717 110.396 30.49 111.643 29.72C112.926 28.95 114.374 28.565 115.988 28.565ZM96.0777 5.135C94.721 5.135 93.7127 5.83166 93.0527 7.225C92.3927 8.61833 92.0627 10.6533 92.0627 13.33C92.0627 16.0067 92.4477 18.0233 93.2177 19.38C93.9877 20.7 95.0143 21.36 96.2977 21.36C97.6543 21.36 98.6443 20.6633 99.2677 19.27C99.9277 17.8767 100.258 15.86 100.258 13.22C100.258 10.5067 99.891 8.49 99.1577 7.17C98.4243 5.81333 97.3977 5.135 96.0777 5.135ZM121.983 0.679997L123.028 1.395L90.8527 49.025L89.8077 48.31L121.983 0.679997Z" fill="#2C2F24"/>
</svg>
