<svg width="98" height="40" viewBox="0 0 98 40" fill="none" xmlns="http://www.w3.org/2000/svg">
<path d="M12.5202 2.015V25.445C12.5202 27.1683 12.8868 28.3417 13.6202 28.965C14.3535 29.5517 15.6002 29.845 17.3602 29.845V31C16.6268 30.9633 15.5452 30.9267 14.1152 30.89C12.7218 30.8167 11.2735 30.78 9.77018 30.78C8.01018 30.78 6.32351 30.8167 4.71018 30.89C3.09684 30.9267 1.85018 30.9633 0.970176 31V29.845C2.73018 29.845 4.10518 29.5517 5.09518 28.965C6.08518 28.3417 6.58018 27.1317 6.58018 25.335V11.97C6.58018 10.21 6.39684 8.90833 6.03018 8.065C5.70018 7.22167 5.07684 6.67167 4.16018 6.415C3.28018 6.15833 2.07018 6.03 0.530176 6.03V4.82C3.31684 4.74667 5.64518 4.50833 7.51518 4.105C9.38518 3.70167 11.0535 3.005 12.5202 2.015ZM33.1465 1.85C36.8131 1.85 39.6915 3.13333 41.7815 5.7C43.8715 8.26667 44.9165 11.8967 44.9165 16.59C44.9165 19.5967 44.4948 22.2733 43.6515 24.62C42.8081 26.93 41.6715 28.965 40.2415 30.725C38.8481 32.4483 37.2898 33.8783 35.5665 35.015C33.8431 36.1883 32.0831 37.105 30.2865 37.765C28.5265 38.4617 26.8581 38.9383 25.2815 39.195L25.0615 38.095C26.6015 37.655 28.1598 37.0317 29.7365 36.225C31.3498 35.4183 32.8165 34.245 34.1365 32.705C35.4931 31.165 36.5748 29.0933 37.3815 26.49C38.1881 23.8867 38.5915 20.5867 38.5915 16.59C38.5915 12.9967 38.2798 10.2283 37.6565 8.285C37.0698 6.305 36.3181 4.93 35.4015 4.16C34.4848 3.35333 33.5498 2.95 32.5965 2.95C31.6065 2.95 30.6715 3.335 29.7915 4.105C28.9115 4.83833 28.1965 6.04833 27.6465 7.735C27.0965 9.42167 26.8215 11.64 26.8215 14.39C26.8215 17.03 27.0598 19.1383 27.5365 20.715C28.0498 22.2917 28.7281 23.4283 29.5715 24.125C30.4515 24.8217 31.3865 25.17 32.3765 25.17C33.1098 25.17 33.9165 24.9867 34.7965 24.62C35.7131 24.2533 36.5565 23.6483 37.3265 22.805C38.0965 21.925 38.6281 20.7333 38.9215 19.23L39.4715 19.065C39.2148 21.045 38.5915 22.585 37.6015 23.685C36.6481 24.785 35.5481 25.5733 34.3015 26.05C33.0548 26.5267 31.8631 26.765 30.7265 26.765C28.9298 26.765 27.2431 26.3067 25.6665 25.39C24.1265 24.4367 22.8798 23.08 21.9265 21.32C20.9731 19.5233 20.4965 17.3417 20.4965 14.775C20.4965 12.025 21.0648 9.67833 22.2015 7.735C23.3748 5.79167 24.9148 4.325 26.8215 3.335C28.7648 2.345 30.8731 1.85 33.1465 1.85ZM61.9892 1.85C65.6559 1.85 68.5342 3.13333 70.6242 5.7C72.7142 8.26667 73.7592 11.8967 73.7592 16.59C73.7592 19.5967 73.3376 22.2733 72.4942 24.62C71.6509 26.93 70.5142 28.965 69.0842 30.725C67.6909 32.4483 66.1326 33.8783 64.4092 35.015C62.6859 36.1883 60.9259 37.105 59.1292 37.765C57.3692 38.4617 55.7009 38.9383 54.1242 39.195L53.9042 38.095C55.4442 37.655 57.0026 37.0317 58.5792 36.225C60.1926 35.4183 61.6592 34.245 62.9792 32.705C64.3359 31.165 65.4176 29.0933 66.2242 26.49C67.0309 23.8867 67.4342 20.5867 67.4342 16.59C67.4342 12.9967 67.1226 10.2283 66.4992 8.285C65.9126 6.305 65.1609 4.93 64.2442 4.16C63.3276 3.35333 62.3926 2.95 61.4392 2.95C60.4492 2.95 59.5142 3.335 58.6342 4.105C57.7542 4.83833 57.0392 6.04833 56.4892 7.735C55.9392 9.42167 55.6642 11.64 55.6642 14.39C55.6642 17.03 55.9026 19.1383 56.3792 20.715C56.8926 22.2917 57.5709 23.4283 58.4142 24.125C59.2942 24.8217 60.2292 25.17 61.2192 25.17C61.9526 25.17 62.7592 24.9867 63.6392 24.62C64.5559 24.2533 65.3992 23.6483 66.1692 22.805C66.9392 21.925 67.4709 20.7333 67.7642 19.23L68.3142 19.065C68.0576 21.045 67.4342 22.585 66.4442 23.685C65.4909 24.785 64.3909 25.5733 63.1442 26.05C61.8976 26.5267 60.7059 26.765 59.5692 26.765C57.7726 26.765 56.0859 26.3067 54.5092 25.39C52.9692 24.4367 51.7226 23.08 50.7692 21.32C49.8159 19.5233 49.3392 17.3417 49.3392 14.775C49.3392 12.025 49.9076 9.67833 51.0442 7.735C52.2176 5.79167 53.7576 4.325 55.6642 3.335C57.6076 2.345 59.7159 1.85 61.9892 1.85ZM95.617 0.089998C95.617 2.29 95.6353 4.01333 95.672 5.26C95.7087 6.47 95.7637 7.57 95.837 8.56C95.5437 8.48667 94.9753 8.43167 94.132 8.395C93.3253 8.35833 92.3903 8.34 91.327 8.34C90.2637 8.30333 89.2187 8.285 88.192 8.285H81.482L80.767 18.46C81.5737 17.9833 82.527 17.5617 83.627 17.195C84.7637 16.8283 86.157 16.645 87.807 16.645C90.117 16.645 92.0053 17.03 93.472 17.8C94.9753 18.5333 96.0753 19.5417 96.772 20.825C97.5053 22.1083 97.872 23.5567 97.872 25.17C97.872 27.2967 97.3037 29.2217 96.167 30.945C95.0303 32.6683 93.5087 34.135 91.602 35.345C89.732 36.555 87.6603 37.49 85.387 38.15C83.1137 38.81 80.822 39.14 78.512 39.14V38.15C80.162 38.15 81.757 37.875 83.297 37.325C84.8737 36.8117 86.2853 36.0233 87.532 34.96C88.7787 33.8967 89.7687 32.595 90.502 31.055C91.272 29.515 91.657 27.7183 91.657 25.665C91.657 23.355 91.0703 21.5583 89.897 20.275C88.7603 18.9917 87.1103 18.35 84.947 18.35C83.957 18.35 83.1137 18.46 82.417 18.68C81.757 18.8633 81.042 19.1383 80.272 19.505L79.667 19.12L80.932 2.455C81.3353 2.52833 81.7937 2.58333 82.307 2.62C82.857 2.65666 83.3887 2.675 83.902 2.675H91.052C92.4087 2.675 93.2887 2.49166 93.692 2.125C94.132 1.72167 94.407 1.04333 94.517 0.089998H95.617Z" fill="#2C2F24"/>
</svg>
