<svg width="22" height="39" viewBox="0 0 22 39" fill="none" xmlns="http://www.w3.org/2000/svg">
<path d="M11.5855 0.849998C13.2355 0.849998 14.6838 1.10666 15.9305 1.62C17.2138 2.09667 18.2038 2.81167 18.9005 3.765C19.6338 4.68167 20.0005 5.81833 20.0005 7.175C20.0005 8.56833 19.5788 9.87 18.7355 11.08C17.9288 12.29 16.8288 13.335 15.4355 14.215C14.0788 15.0583 12.5388 15.7367 10.8155 16.25C12.7955 16.2133 14.6288 16.5067 16.3155 17.13C18.0022 17.7533 19.3588 18.6883 20.3855 19.935C21.4488 21.145 21.9805 22.7033 21.9805 24.61C21.9805 26.2967 21.5588 27.855 20.7155 29.285C19.9088 30.6783 18.7905 31.925 17.3605 33.025C15.9305 34.1617 14.2805 35.115 12.4105 35.885C10.5772 36.6917 8.65218 37.2967 6.63551 37.7C4.61884 38.1033 2.62051 38.305 0.640508 38.305V37.26C2.47384 37.2233 4.28884 36.9117 6.08551 36.325C7.88217 35.775 9.49551 34.9683 10.9255 33.905C12.3922 32.8783 13.5655 31.5767 14.4455 30C15.3255 28.4233 15.7655 26.6267 15.7655 24.61C15.7655 22.4467 15.2522 20.6683 14.2255 19.275C13.1988 17.845 11.7872 17.0567 9.99051 16.91C9.44051 17.1667 8.94551 17.3867 8.50551 17.57C8.06551 17.7167 7.66217 17.79 7.29551 17.79C7.00217 17.79 6.76384 17.735 6.58051 17.625C6.43384 17.4783 6.36051 17.2767 6.36051 17.02C6.36051 16.6533 6.52551 16.3783 6.85551 16.195C7.18551 16.0117 7.53384 15.92 7.90051 15.92C8.19384 15.92 8.48718 15.9567 8.78051 16.03C9.11051 16.0667 9.45884 16.1033 9.82551 16.14C11.3655 15.04 12.4472 13.83 13.0705 12.51C13.7305 11.1533 14.0605 9.79667 14.0605 8.44C14.0605 6.71667 13.6205 5.47 12.7405 4.7C11.8972 3.89333 10.7422 3.49 9.27551 3.49C7.77217 3.49 6.39717 3.89333 5.15051 4.7C3.90384 5.47 2.85884 6.64333 2.01551 8.22L1.02551 7.725C1.61217 6.515 2.36384 5.39667 3.28051 4.37C4.19717 3.30667 5.33384 2.46333 6.69051 1.84C8.04717 1.18 9.67884 0.849998 11.5855 0.849998Z" fill="#2C2F24"/>
</svg>
