<svg width="81" height="49" viewBox="0 0 81 49" fill="none" xmlns="http://www.w3.org/2000/svg">
<path d="M20.6196 0.234997L20.8396 1.335C19.593 1.73833 18.328 2.25167 17.0446 2.875C15.7613 3.49833 14.533 4.36 13.3596 5.46C12.1863 6.56 11.1413 7.97166 10.2246 9.695C9.30798 11.3817 8.57465 13.49 8.02465 16.02C7.47465 18.55 7.19965 21.5933 7.19965 25.15C7.19965 28.9267 7.51132 31.8783 8.13465 34.005C8.75798 36.095 9.52798 37.5617 10.4446 38.405C11.398 39.2483 12.333 39.67 13.2496 39.67C14.2396 39.67 15.1746 39.3033 16.0546 38.57C16.9346 37.8 17.6313 36.5717 18.1446 34.885C18.6946 33.1983 18.9696 30.98 18.9696 28.23C18.9696 25.59 18.713 23.4817 18.1996 21.905C17.723 20.3283 17.063 19.1917 16.2197 18.495C15.413 17.7983 14.4963 17.45 13.4696 17.45C12.7363 17.45 11.9113 17.6333 10.9946 18C10.1146 18.3667 9.28965 18.9717 8.51965 19.815C7.78632 20.6583 7.23632 21.85 6.86965 23.39L6.37465 23.555C6.59465 21.6117 7.18132 20.09 8.13465 18.99C9.12465 17.8533 10.2613 17.0467 11.5446 16.57C12.828 16.0933 14.0196 15.855 15.1196 15.855C16.9163 15.855 18.5846 16.3317 20.1246 17.285C21.6646 18.2383 22.9113 19.595 23.8647 21.355C24.818 23.115 25.2946 25.2783 25.2946 27.845C25.2946 30.595 24.7263 32.9417 23.5897 34.885C22.453 36.8283 20.913 38.295 18.9696 39.285C17.063 40.275 14.973 40.77 12.6996 40.77C9.03298 40.77 6.13632 39.4133 4.00965 36.7C1.91965 33.95 0.874648 30.1 0.874648 25.15C0.874648 21.8133 1.29632 18.8617 2.13965 16.295C3.01965 13.7283 4.15632 11.51 5.54965 9.64C6.97965 7.73333 8.55632 6.13833 10.2796 4.855C12.0396 3.57166 13.818 2.56333 15.6146 1.83C17.4113 1.06 19.0796 0.528331 20.6196 0.234997ZM46.5921 9.09C46.5921 11.29 46.6104 13.0133 46.6471 14.26C46.6838 15.47 46.7388 16.57 46.8121 17.56C46.5188 17.4867 45.9504 17.4317 45.1071 17.395C44.3004 17.3583 43.3654 17.34 42.3021 17.34C41.2388 17.3033 40.1938 17.285 39.1671 17.285H32.4571L31.7421 27.46C32.5488 26.9833 33.5021 26.5617 34.6021 26.195C35.7388 25.8283 37.1321 25.645 38.7821 25.645C41.0921 25.645 42.9804 26.03 44.4471 26.8C45.9504 27.5333 47.0504 28.5417 47.7471 29.825C48.4804 31.1083 48.8471 32.5567 48.8471 34.17C48.8471 36.2967 48.2788 38.2217 47.1421 39.945C46.0054 41.6683 44.4838 43.135 42.5771 44.345C40.7071 45.555 38.6354 46.49 36.3621 47.15C34.0888 47.81 31.7971 48.14 29.4871 48.14V47.15C31.1371 47.15 32.7321 46.875 34.2721 46.325C35.8488 45.8117 37.2604 45.0233 38.5071 43.96C39.7538 42.8967 40.7438 41.595 41.4771 40.055C42.2471 38.515 42.6321 36.7183 42.6321 34.665C42.6321 32.355 42.0454 30.5583 40.8721 29.275C39.7354 27.9917 38.0854 27.35 35.9221 27.35C34.9321 27.35 34.0888 27.46 33.3921 27.68C32.7321 27.8633 32.0171 28.1383 31.2471 28.505L30.6421 28.12L31.9071 11.455C32.3104 11.5283 32.7688 11.5833 33.2821 11.62C33.8321 11.6567 34.3638 11.675 34.8771 11.675H42.0271C43.3838 11.675 44.2638 11.4917 44.6671 11.125C45.1071 10.7217 45.3821 10.0433 45.4921 9.09H46.5921ZM67.9699 6.67V19.65H80.7299V21.3H67.9699V34.225H65.9899V21.3H53.1749V19.65H65.9899V6.67H67.9699Z" fill="#2C2F24"/>
</svg>
