<svg width="44" height="12" viewBox="0 0 44 12" fill="none" xmlns="http://www.w3.org/2000/svg">
<path d="M0.524672 11.5V0.299999H2.22067V5.1H7.64467V0.299999H9.34067V11.5H7.64467V6.492H2.22067V11.5H0.524672ZM15.2664 11.692C14.5091 11.692 13.8264 11.5213 13.2184 11.18C12.6211 10.828 12.1464 10.3427 11.7944 9.724C11.4424 9.09467 11.2664 8.364 11.2664 7.532C11.2664 6.7 11.4424 5.97467 11.7944 5.356C12.1571 4.72667 12.6424 4.24133 13.2504 3.9C13.8584 3.548 14.5358 3.372 15.2824 3.372C16.0398 3.372 16.7171 3.548 17.3144 3.9C17.9224 4.24133 18.4024 4.72667 18.7544 5.356C19.1171 5.97467 19.2984 6.7 19.2984 7.532C19.2984 8.364 19.1171 9.09467 18.7544 9.724C18.4024 10.3427 17.9224 10.828 17.3144 11.18C16.7064 11.5213 16.0238 11.692 15.2664 11.692ZM15.2664 10.236C15.6718 10.236 16.0451 10.1347 16.3864 9.932C16.7384 9.72933 17.0211 9.43067 17.2344 9.036C17.4478 8.63067 17.5544 8.12933 17.5544 7.532C17.5544 6.93467 17.4478 6.43867 17.2344 6.044C17.0318 5.63867 16.7544 5.33467 16.4024 5.132C16.0611 4.92933 15.6878 4.828 15.2824 4.828C14.8771 4.828 14.4984 4.92933 14.1464 5.132C13.8051 5.33467 13.5278 5.63867 13.3144 6.044C13.1011 6.43867 12.9944 6.93467 12.9944 7.532C12.9944 8.12933 13.1011 8.63067 13.3144 9.036C13.5278 9.43067 13.8051 9.72933 14.1464 9.932C14.4878 10.1347 14.8611 10.236 15.2664 10.236ZM21.1325 11.5V3.564H22.6365L22.7805 4.684C23.0365 4.27867 23.3725 3.95867 23.7885 3.724C24.2152 3.48933 24.7059 3.372 25.2605 3.372C26.5192 3.372 27.3939 3.868 27.8845 4.86C28.1725 4.40133 28.5565 4.03867 29.0365 3.772C29.5272 3.50533 30.0552 3.372 30.6205 3.372C31.6125 3.372 32.3912 3.67067 32.9565 4.268C33.5219 4.86533 33.8045 5.756 33.8045 6.94V11.5H32.1085V7.116C32.1085 5.58 31.5219 4.812 30.3485 4.812C29.7512 4.812 29.2605 5.036 28.8765 5.484C28.5032 5.932 28.3165 6.572 28.3165 7.404V11.5H26.6205V7.116C26.6205 5.58 26.0285 4.812 24.8445 4.812C24.2579 4.812 23.7725 5.036 23.3885 5.484C23.0152 5.932 22.8285 6.572 22.8285 7.404V11.5H21.1325ZM39.5008 11.692C38.7221 11.692 38.0288 11.5213 37.4208 11.18C36.8235 10.828 36.3541 10.3427 36.0128 9.724C35.6715 9.10533 35.5008 8.38533 35.5008 7.564C35.5008 6.732 35.6661 6.00133 35.9968 5.372C36.3381 4.74267 36.8075 4.252 37.4048 3.9C38.0128 3.548 38.7168 3.372 39.5168 3.372C40.2955 3.372 40.9728 3.548 41.5488 3.9C42.1248 4.24133 42.5728 4.7 42.8928 5.276C43.2128 5.852 43.3728 6.48667 43.3728 7.18C43.3728 7.28667 43.3675 7.404 43.3568 7.532C43.3568 7.64933 43.3515 7.78267 43.3408 7.932H37.1648C37.2181 8.7 37.4688 9.28667 37.9168 9.692C38.3755 10.0867 38.9035 10.284 39.5008 10.284C39.9808 10.284 40.3808 10.1773 40.7008 9.964C41.0315 9.74 41.2768 9.44133 41.4368 9.068H43.1328C42.9195 9.81467 42.4928 10.4387 41.8528 10.94C41.2235 11.4413 40.4395 11.692 39.5008 11.692ZM39.5008 4.764C38.9355 4.764 38.4341 4.93467 37.9968 5.276C37.5595 5.60667 37.2928 6.108 37.1968 6.78H41.6768C41.6448 6.16133 41.4261 5.67067 41.0208 5.308C40.6155 4.94533 40.1088 4.764 39.5008 4.764Z" fill="#2C2F24"/>
</svg>
