<svg width="162" height="27" viewBox="0 0 162 27" fill="none" xmlns="http://www.w3.org/2000/svg">
<path d="M15.9143 2.90231C18.3101 2.90231 20.0525 3.29435 21.1415 4.07843C22.2305 4.84073 22.775 5.87528 22.775 7.18208C22.775 8.31464 22.4156 9.3383 21.6969 10.2531C20.9999 11.1678 20.0416 11.941 18.8219 12.5726C17.6022 13.1825 16.2192 13.6072 14.6728 13.8468C16.9815 14.021 18.6694 14.5873 19.7367 15.5456C20.8257 16.5039 21.3702 17.6474 21.3702 18.976C21.3702 20.1521 21.087 21.1757 20.5207 22.0469C19.9762 22.9181 19.2248 23.6478 18.2665 24.2358C17.33 24.8239 16.2301 25.2704 14.9668 25.5753C13.7036 25.8584 12.3641 26 10.9484 26C10.2079 26 9.39116 25.9891 8.49818 25.9673C7.62698 25.9238 6.54887 25.902 5.26385 25.902C4.71935 25.902 4.15307 25.9129 3.56501 25.9347C2.97695 25.9347 2.42156 25.9456 1.89884 25.9673C1.37612 25.9673 0.929626 25.9782 0.559366 26L0.690046 25.3466C1.43057 25.303 2.00774 25.2159 2.42156 25.0852C2.83538 24.9546 3.16208 24.6932 3.40166 24.3012C3.64124 23.9091 3.85904 23.3211 4.05506 22.537L8.3675 6.33266C8.51996 5.67926 8.60708 5.15654 8.62886 4.7645C8.65064 4.35068 8.49818 4.04576 8.17148 3.84974C7.86656 3.63194 7.28939 3.52304 6.43997 3.52304L6.60332 2.86964C6.97358 2.89142 7.40918 2.9132 7.91012 2.93498C8.43284 2.93498 8.98823 2.94587 9.57629 2.96765C10.1643 2.96765 10.7088 2.96765 11.2098 2.96765C12.1463 2.96765 12.974 2.95676 13.6927 2.93498C14.4332 2.9132 15.1737 2.90231 15.9143 2.90231ZM9.80498 14.2715L9.93566 13.7161H12.3532C13.5947 13.7161 14.651 13.4003 15.5222 12.7686C16.4152 12.1152 17.0904 11.2658 17.5478 10.2204C18.0269 9.17495 18.2665 8.07506 18.2665 6.92072C18.2665 5.83172 18.0487 4.99319 17.6131 4.40513C17.1993 3.81707 16.4697 3.52304 15.4242 3.52304C14.6619 3.52304 14.1174 3.6755 13.7907 3.98042C13.464 4.26356 13.1809 4.88429 12.9413 5.84261L8.53085 22.537C8.40017 23.0815 8.31305 23.5606 8.26949 23.9745C8.24771 24.3883 8.35661 24.7041 8.59619 24.9219C8.83577 25.1397 9.28226 25.2486 9.93566 25.2486C11.482 25.2486 12.7453 24.9546 13.7254 24.3665C14.7055 23.7784 15.4351 22.9726 15.9143 21.9489C16.3934 20.9035 16.633 19.7274 16.633 18.4206C16.633 17.6147 16.4914 16.9068 16.2083 16.297C15.9469 15.6654 15.5222 15.1753 14.9342 14.8269C14.3461 14.4566 13.562 14.2715 12.5819 14.2715H9.80498ZM29.0098 3.52304C29.0751 2.71718 29.4018 2.07467 29.9899 1.59551C30.5779 1.11635 31.264 0.87677 32.0481 0.87677C32.7668 0.87677 33.3113 1.08368 33.6816 1.4975C34.0736 1.88954 34.237 2.40137 34.1716 3.03299C34.1063 3.77351 33.7796 4.39424 33.1915 4.89518C32.6035 5.39612 31.9174 5.64659 31.1333 5.64659C30.4146 5.64659 29.8592 5.45057 29.4672 5.05853C29.0969 4.64471 28.9444 4.13288 29.0098 3.52304ZM27.8663 11.9192C28.2584 10.7431 28.1277 10.1551 27.4743 10.1551C27.0387 10.1551 26.6467 10.3837 26.2982 10.8411C25.9497 11.2767 25.5794 11.9846 25.1874 12.9647L24.632 14.5002H24.0113L24.8607 12.0499C25.1874 11.1787 25.5794 10.5035 26.0368 10.0244C26.4942 9.52343 27.006 9.17495 27.5723 8.97893C28.1386 8.78291 28.694 8.6849 29.2385 8.6849C30.0008 8.6849 30.5779 8.82647 30.97 9.10961C31.362 9.39275 31.6234 9.76301 31.7541 10.2204C31.8847 10.6778 31.9174 11.1787 31.8521 11.7232C31.7867 12.2459 31.6669 12.7578 31.4927 13.2587L28.0297 23.2231C27.8337 23.8111 27.7792 24.2576 27.8663 24.5625C27.9535 24.8457 28.1604 24.9872 28.4871 24.9872C28.8355 24.9872 29.184 24.8021 29.5325 24.4318C29.9028 24.0398 30.2948 23.2884 30.7086 22.1776L31.264 20.7075H31.8847L31.068 23.0924C30.7413 23.9636 30.3493 24.6496 29.8919 25.1506C29.4345 25.6297 28.9336 25.9673 28.3891 26.1634C27.8446 26.3594 27.3109 26.4574 26.7882 26.4574C25.8299 26.4574 25.1329 26.2505 24.6973 25.8366C24.2617 25.4011 24.0439 24.813 24.0439 24.0725C24.0439 23.3102 24.2182 22.439 24.5667 21.4589L27.8663 11.9192ZM35.2877 25.51C35.462 25.5971 35.6471 25.6733 35.8431 25.7386C36.0391 25.7822 36.3114 25.804 36.6599 25.804C37.4875 25.804 38.1736 25.5426 38.7181 25.0199C39.2844 24.4754 39.5675 23.724 39.5675 22.7657C39.5675 22.0687 39.415 21.3609 39.1101 20.6421C38.827 19.9234 38.3914 19.1284 37.8033 18.2572C37.2806 17.4949 36.8014 16.7435 36.3658 16.003C35.952 15.2625 35.7451 14.413 35.7451 13.4547C35.7451 12.5182 35.9738 11.7014 36.4312 11.0045C36.8886 10.2857 37.542 9.71945 38.3914 9.30563C39.2408 8.89181 40.2318 8.6849 41.3644 8.6849C42.1049 8.6849 42.8345 8.77202 43.5532 8.94626C44.272 9.1205 44.86 9.43631 45.3174 9.89369C45.7748 10.3511 46.0035 11.0154 46.0035 11.8866C46.0035 12.1915 45.9382 12.5182 45.8075 12.8667C45.6768 13.1934 45.4808 13.4765 45.2194 13.7161C44.9581 13.9557 44.6096 14.0755 44.174 14.0755C43.7166 14.0755 43.3354 13.9012 43.0305 13.5527C42.7256 13.1825 42.5731 12.7142 42.5731 12.1479C42.5731 11.647 42.6603 11.1787 42.8345 10.7431C43.0305 10.3075 43.2592 9.92636 43.5206 9.59966C43.2157 9.42542 42.7801 9.3383 42.2138 9.3383C41.4297 9.3383 40.7981 9.58877 40.3189 10.0897C39.8398 10.5907 39.6002 11.2985 39.6002 12.2133C39.6002 12.6924 39.6764 13.1498 39.8289 13.5854C40.0031 13.9992 40.2318 14.4348 40.5149 14.8922C40.8199 15.3278 41.1574 15.8396 41.5277 16.4277C42.1375 17.4078 42.6167 18.2899 42.9652 19.074C43.3137 19.8363 43.4879 20.6203 43.4879 21.4262C43.4879 22.3845 43.2265 23.2448 42.7038 24.0071C42.2029 24.7694 41.5059 25.3684 40.6129 25.804C39.72 26.2396 38.6745 26.4574 37.4766 26.4574C36.6272 26.4574 35.8105 26.3376 35.0264 26.098C34.2641 25.8802 33.6325 25.51 33.1315 24.9872C32.6524 24.4645 32.4128 23.7458 32.4128 22.831C32.4128 22.3301 32.5543 21.8727 32.8375 21.4589C33.0988 21.0233 33.5127 20.8055 34.0789 20.8055C34.6452 20.8055 35.0699 21.0342 35.3531 21.4915C35.6362 21.9489 35.7778 22.5152 35.7778 23.1904C35.7778 23.6695 35.7124 24.116 35.5818 24.5299C35.4729 24.9219 35.3749 25.2486 35.2877 25.51ZM58.7769 9.14228L58.6789 9.79568H47.7344L47.8978 9.14228H58.7769ZM50.8381 23.2231C50.6639 23.8329 50.6856 24.2794 50.9034 24.5625C51.143 24.8457 51.4588 24.9872 51.8509 24.9872C52.3082 24.9872 52.7656 24.7694 53.223 24.3338C53.7022 23.8982 54.1378 23.1359 54.5298 22.0469L55.0199 20.7075H55.6406L54.9872 22.6677C54.5298 24.018 53.8982 24.9872 53.0923 25.5753C52.2865 26.1633 51.3281 26.4574 50.2174 26.4574C49.2373 26.4574 48.4859 26.2396 47.9631 25.804C47.4622 25.3684 47.1573 24.7803 47.0484 24.0398C46.9613 23.2775 47.0593 22.4172 47.3424 21.4589L52.2756 4.24178C53.0597 4.22 53.7893 4.17644 54.4645 4.1111C55.1614 4.04576 55.8148 3.93686 56.4247 3.7844L50.8381 23.2231ZM61.6327 26H57.6143L61.5347 11.9192C61.7307 11.2658 61.796 10.8085 61.7307 10.5471C61.6653 10.2857 61.4693 10.1551 61.1426 10.1551C60.7288 10.1551 60.3477 10.362 59.9992 10.7758C59.6507 11.1896 59.2913 11.9192 58.9211 12.9647L58.3657 14.5002H57.7449L58.5944 12.0499C58.8993 11.1787 59.2804 10.5035 59.7378 10.0244C60.1952 9.52343 60.6961 9.17495 61.2406 8.97893C61.7851 8.78291 62.3405 8.6849 62.9068 8.6849C63.6038 8.6849 64.1156 8.82647 64.4423 9.10961C64.7908 9.39275 65.0086 9.76301 65.0957 10.2204C65.2046 10.6778 65.2264 11.1787 65.161 11.7232C65.1175 12.2459 65.0304 12.7578 64.8997 13.2587L61.6327 26ZM69.9962 9.43631C69.517 9.43631 69.027 9.61055 68.526 9.95903C68.0251 10.2857 67.5024 10.8193 66.9579 11.5599C66.4134 12.3004 65.858 13.2805 65.2917 14.5002C64.7472 15.6981 64.1809 17.1682 63.5929 18.9106C63.0048 20.6312 62.4168 22.6677 61.8287 25.0199L62.6128 20.6748C63.288 18.3879 63.9196 16.4821 64.5076 14.9575C65.1175 13.4112 65.7055 12.1806 66.2718 11.2658C66.8599 10.3293 67.4806 9.665 68.134 9.27296C68.7874 8.88092 69.4953 8.6849 70.2576 8.6849C71.0416 8.6849 71.6406 8.91359 72.0544 9.37097C72.49 9.82835 72.7078 10.3946 72.7078 11.0698C72.7078 11.6143 72.5771 12.1261 72.3158 12.6053C72.0544 13.0627 71.7059 13.4329 71.2703 13.7161C70.8565 13.9774 70.3773 14.1081 69.8328 14.1081C69.2883 14.1081 68.8527 13.9666 68.526 13.6834C68.2211 13.4003 68.0687 12.9865 68.0687 12.442C68.0687 11.9628 68.1776 11.5272 68.3954 11.1352C68.6132 10.7431 68.8963 10.4164 69.2448 10.1551C69.5933 9.87191 69.9744 9.67589 70.3882 9.56699C70.3447 9.52343 70.2902 9.49076 70.2249 9.46898C70.1595 9.4472 70.0833 9.43631 69.9962 9.43631ZM81.3722 9.3383C80.8059 9.3383 80.2287 9.63233 79.6407 10.2204C79.0526 10.7867 78.4972 11.5708 77.9745 12.5726C77.4518 13.5527 76.9726 14.6526 76.537 15.8723C76.1232 17.092 75.7965 18.3552 75.5569 19.662C75.3174 20.947 75.1976 22.1776 75.1976 23.3537C75.1976 24.2249 75.3065 24.8566 75.5243 25.2486C75.7638 25.6188 76.1123 25.804 76.5697 25.804C77.1142 25.804 77.6805 25.5208 78.2685 24.9546C78.8566 24.3883 79.412 23.626 79.9347 22.6677C80.4792 21.6876 80.9584 20.5986 81.3722 19.4007C81.786 18.181 82.1127 16.9177 82.3523 15.6109C82.5919 14.3041 82.7117 13.03 82.7117 11.7885C82.7117 10.8738 82.5919 10.2422 82.3523 9.89369C82.1345 9.52343 81.8078 9.3383 81.3722 9.3383ZM71.3425 21.1648C71.3425 20.1847 71.4732 19.1284 71.7345 17.9959C72.0177 16.8633 72.4315 15.7525 72.976 14.6635C73.5205 13.5527 74.1957 12.5508 75.0015 11.6579C75.8292 10.7431 76.7875 10.0244 77.8765 9.50165C78.9655 8.95715 80.1961 8.6849 81.5682 8.6849C83.1364 8.6849 84.3561 9.13139 85.2273 10.0244C86.1202 10.8956 86.5667 12.2133 86.5667 13.9774C86.5667 14.9575 86.4252 16.0139 86.142 17.1464C85.8807 18.279 85.4777 19.4007 84.9332 20.5114C84.3887 21.6004 83.7027 22.6023 82.875 23.5171C82.0692 24.4101 81.1217 25.1288 80.0327 25.6733C78.9437 26.196 77.7132 26.4574 76.341 26.4574C74.7729 26.4574 73.5423 26.0109 72.6493 25.1179C71.7781 24.2249 71.3425 22.9072 71.3425 21.1648ZM109.306 2.90231C111.702 2.90231 113.444 3.29435 114.533 4.07843C115.622 4.84073 116.166 5.87528 116.166 7.18208C116.166 8.31464 115.807 9.3383 115.088 10.2531C114.391 11.1678 113.433 11.941 112.213 12.5726C110.994 13.1825 109.611 13.6072 108.064 13.8468C110.373 14.021 112.061 14.5873 113.128 15.5456C114.217 16.5039 114.762 17.6474 114.762 18.976C114.762 20.1521 114.478 21.1757 113.912 22.0469C113.368 22.9181 112.616 23.6478 111.658 24.2358C110.721 24.8239 109.622 25.2704 108.358 25.5753C107.095 25.8584 105.756 26 104.34 26C103.599 26 102.783 25.9891 101.89 25.9673C101.018 25.9238 99.9403 25.902 98.6553 25.902C98.1108 25.902 97.5445 25.9129 96.9565 25.9347C96.3684 25.9347 95.813 25.9456 95.2903 25.9673C94.7676 25.9673 94.3211 25.9782 93.9508 26L94.0815 25.3466C94.822 25.303 95.3992 25.2159 95.813 25.0852C96.2268 24.9546 96.5535 24.6932 96.7931 24.3012C97.0327 23.9091 97.2505 23.3211 97.4465 22.537L101.759 6.33266C101.911 5.67926 101.999 5.15654 102.02 4.7645C102.042 4.35068 101.89 4.04576 101.563 3.84974C101.258 3.63194 100.681 3.52304 99.8314 3.52304L99.9948 2.86964C100.365 2.89142 100.801 2.9132 101.302 2.93498C101.824 2.93498 102.38 2.94587 102.968 2.96765C103.556 2.96765 104.1 2.96765 104.601 2.96765C105.538 2.96765 106.365 2.95676 107.084 2.93498C107.825 2.9132 108.565 2.90231 109.306 2.90231ZM103.196 14.2715L103.327 13.7161H105.745C106.986 13.7161 108.042 13.4003 108.914 12.7686C109.807 12.1152 110.482 11.2658 110.939 10.2204C111.418 9.17495 111.658 8.07506 111.658 6.92072C111.658 5.83172 111.44 4.99319 111.005 4.40513C110.591 3.81707 109.861 3.52304 108.816 3.52304C108.053 3.52304 107.509 3.6755 107.182 3.98042C106.855 4.26356 106.572 4.88429 106.333 5.84261L101.922 22.537C101.792 23.0815 101.704 23.5606 101.661 23.9745C101.639 24.3883 101.748 24.7041 101.988 24.9219C102.227 25.1397 102.674 25.2486 103.327 25.2486C104.873 25.2486 106.137 24.9546 107.117 24.3665C108.097 23.7784 108.827 22.9726 109.306 21.9489C109.785 20.9035 110.024 19.7274 110.024 18.4206C110.024 17.6147 109.883 16.9068 109.6 16.297C109.338 15.6654 108.914 15.1753 108.326 14.8269C107.738 14.4566 106.953 14.2715 105.973 14.2715H103.196ZM120.702 23.2231C120.528 23.8111 120.485 24.2576 120.572 24.5625C120.681 24.8457 120.898 24.9872 121.225 24.9872C121.53 24.9872 121.857 24.8021 122.205 24.4318C122.575 24.0398 122.968 23.2884 123.381 22.1776L123.904 20.7075H124.525L123.708 23.0924C123.403 23.9636 123.022 24.6496 122.565 25.1506C122.107 25.6297 121.617 25.9673 121.094 26.1634C120.572 26.3594 120.038 26.4574 119.494 26.4574C118.797 26.4574 118.241 26.3267 117.827 26.0653C117.414 25.804 117.13 25.4446 116.978 24.9872C116.826 24.5299 116.771 24.0071 116.815 23.4191C116.858 22.8092 116.989 22.1558 117.207 21.4589L122.401 4.20911C122.619 3.46859 122.597 2.92409 122.336 2.57561C122.075 2.22713 121.41 2.05289 120.343 2.05289L120.572 1.36682C121.987 1.34504 123.251 1.22525 124.361 1.00745C125.472 0.76787 126.539 0.441171 127.563 0.0273509L120.702 23.2231ZM131.573 3.52304C131.638 2.71718 131.965 2.07467 132.553 1.59551C133.141 1.11635 133.827 0.87677 134.611 0.87677C135.33 0.87677 135.874 1.08368 136.244 1.4975C136.636 1.88954 136.8 2.40137 136.734 3.03299C136.669 3.77351 136.342 4.39424 135.754 4.89518C135.166 5.39612 134.48 5.64659 133.696 5.64659C132.977 5.64659 132.422 5.45057 132.03 5.05853C131.66 4.64471 131.507 4.13288 131.573 3.52304ZM130.429 11.9192C130.821 10.7431 130.69 10.1551 130.037 10.1551C129.601 10.1551 129.209 10.3837 128.861 10.8411C128.512 11.2767 128.142 11.9846 127.75 12.9647L127.195 14.5002H126.574L127.423 12.0499C127.75 11.1787 128.142 10.5035 128.6 10.0244C129.057 9.52343 129.569 9.17495 130.135 8.97893C130.701 8.78291 131.257 8.6849 131.801 8.6849C132.564 8.6849 133.141 8.82647 133.533 9.10961C133.925 9.39275 134.186 9.76301 134.317 10.2204C134.447 10.6778 134.48 11.1787 134.415 11.7232C134.349 12.2459 134.23 12.7578 134.055 13.2587L130.592 23.2231C130.396 23.8111 130.342 24.2576 130.429 24.5625C130.516 24.8457 130.723 24.9872 131.05 24.9872C131.398 24.9872 131.747 24.8021 132.095 24.4318C132.466 24.0398 132.858 23.2884 133.271 22.1776L133.827 20.7075H134.447L133.631 23.0924C133.304 23.9636 132.912 24.6496 132.455 25.1506C131.997 25.6297 131.496 25.9673 130.952 26.1634C130.407 26.3594 129.874 26.4574 129.351 26.4574C128.393 26.4574 127.696 26.2505 127.26 25.8366C126.824 25.4011 126.607 24.813 126.607 24.0725C126.607 23.3102 126.781 22.439 127.129 21.4589L130.429 11.9192ZM137.85 25.51C138.025 25.5971 138.21 25.6733 138.406 25.7386C138.602 25.7822 138.874 25.804 139.223 25.804C140.05 25.804 140.736 25.5426 141.281 25.0199C141.847 24.4754 142.13 23.724 142.13 22.7657C142.13 22.0687 141.978 21.3609 141.673 20.6421C141.39 19.9234 140.954 19.1284 140.366 18.2572C139.843 17.4949 139.364 16.7435 138.929 16.003C138.515 15.2625 138.308 14.413 138.308 13.4547C138.308 12.5182 138.537 11.7014 138.994 11.0045C139.451 10.2857 140.105 9.71945 140.954 9.30563C141.804 8.89181 142.795 8.6849 143.927 8.6849C144.668 8.6849 145.397 8.77202 146.116 8.94626C146.835 9.1205 147.423 9.43631 147.88 9.89369C148.338 10.3511 148.566 11.0154 148.566 11.8866C148.566 12.1915 148.501 12.5182 148.37 12.8667C148.24 13.1934 148.044 13.4765 147.782 13.7161C147.521 13.9557 147.172 14.0755 146.737 14.0755C146.279 14.0755 145.898 13.9012 145.593 13.5527C145.288 13.1825 145.136 12.7142 145.136 12.1479C145.136 11.647 145.223 11.1787 145.397 10.7431C145.593 10.3075 145.822 9.92636 146.083 9.59966C145.778 9.42542 145.343 9.3383 144.777 9.3383C143.992 9.3383 143.361 9.58877 142.882 10.0897C142.402 10.5907 142.163 11.2985 142.163 12.2133C142.163 12.6924 142.239 13.1498 142.392 13.5854C142.566 13.9992 142.795 14.4348 143.078 14.8922C143.383 15.3278 143.72 15.8396 144.09 16.4277C144.7 17.4078 145.179 18.2899 145.528 19.074C145.876 19.8363 146.051 20.6203 146.051 21.4262C146.051 22.3845 145.789 23.2448 145.267 24.0071C144.766 24.7694 144.069 25.3684 143.176 25.804C142.283 26.2396 141.237 26.4574 140.039 26.4574C139.19 26.4574 138.373 26.3376 137.589 26.098C136.827 25.8802 136.195 25.51 135.694 24.9872C135.215 24.4645 134.976 23.7458 134.976 22.831C134.976 22.3301 135.117 21.8727 135.4 21.4589C135.662 21.0233 136.075 20.8055 136.642 20.8055C137.208 20.8055 137.633 21.0342 137.916 21.4915C138.199 21.9489 138.341 22.5152 138.341 23.1904C138.341 23.6695 138.275 24.116 138.144 24.5299C138.036 24.9219 137.938 25.2486 137.85 25.51ZM150.755 25.51C150.929 25.5971 151.114 25.6733 151.31 25.7386C151.506 25.7822 151.778 25.804 152.127 25.804C152.954 25.804 153.64 25.5426 154.185 25.0199C154.751 24.4754 155.034 23.724 155.034 22.7657C155.034 22.0687 154.882 21.3609 154.577 20.6421C154.294 19.9234 153.858 19.1284 153.27 18.2572C152.747 17.4949 152.268 16.7435 151.833 16.003C151.419 15.2625 151.212 14.413 151.212 13.4547C151.212 12.5182 151.441 11.7014 151.898 11.0045C152.355 10.2857 153.009 9.71945 153.858 9.30563C154.708 8.89181 155.699 8.6849 156.831 8.6849C157.572 8.6849 158.301 8.77202 159.02 8.94626C159.739 9.1205 160.327 9.43631 160.784 9.89369C161.242 10.3511 161.47 11.0154 161.47 11.8866C161.47 12.1915 161.405 12.5182 161.274 12.8667C161.144 13.1934 160.948 13.4765 160.686 13.7161C160.425 13.9557 160.076 14.0755 159.641 14.0755C159.183 14.0755 158.802 13.9012 158.497 13.5527C158.192 13.1825 158.04 12.7142 158.04 12.1479C158.04 11.647 158.127 11.1787 158.301 10.7431C158.497 10.3075 158.726 9.92636 158.987 9.59966C158.682 9.42542 158.247 9.3383 157.681 9.3383C156.897 9.3383 156.265 9.58877 155.786 10.0897C155.307 10.5907 155.067 11.2985 155.067 12.2133C155.067 12.6924 155.143 13.1498 155.296 13.5854C155.47 13.9992 155.699 14.4348 155.982 14.8922C156.287 15.3278 156.624 15.8396 156.995 16.4277C157.604 17.4078 158.084 18.2899 158.432 19.074C158.78 19.8363 158.955 20.6203 158.955 21.4262C158.955 22.3845 158.693 23.2448 158.171 24.0071C157.67 24.7694 156.973 25.3684 156.08 25.804C155.187 26.2396 154.141 26.4574 152.943 26.4574C152.094 26.4574 151.277 26.3376 150.493 26.098C149.731 25.8802 149.099 25.51 148.598 24.9872C148.119 24.4645 147.88 23.7458 147.88 22.831C147.88 22.3301 148.021 21.8727 148.304 21.4589C148.566 21.0233 148.979 20.8055 149.546 20.8055C150.112 20.8055 150.537 21.0342 150.82 21.4915C151.103 21.9489 151.245 22.5152 151.245 23.1904C151.245 23.6695 151.179 24.116 151.049 24.5299C150.94 24.9219 150.842 25.2486 150.755 25.51Z" fill="white"/>
</svg>
